<svg version="1.2" xmlns="http://www.w3.org/2000/svg" viewBox="0 0 117 116" width="117" height="116"><defs><linearGradient id="P" gradientUnits="userSpaceOnUse"/><linearGradient id="g1" x2="1" href="#P" gradientTransform="matrix(-70.694,68.206,-68.295,-70.786,92.312,25.787)"><stop offset=".05" stop-color="#fff44f"/><stop offset=".11" stop-color="#ffe847"/><stop offset=".22" stop-color="#ffc830"/><stop offset=".37" stop-color="#ff980e"/><stop offset=".4" stop-color="#ff8b16"/><stop offset=".46" stop-color="#ff672a"/><stop offset=".53" stop-color="#ff3647"/><stop offset=".7" stop-color="#e31587"/></linearGradient><radialGradient id="g2" cx="0" cy="0" r="1" href="#P" gradientTransform="matrix(88.776,0,0,88.776,89.045,21.925)"><stop offset=".13" stop-color="#ffbd4f"/><stop offset=".19" stop-color="#ffac31"/><stop offset=".25" stop-color="#ff9d17"/><stop offset=".28" stop-color="#ff980e"/><stop offset=".4" stop-color="#ff563b"/><stop offset=".47" stop-color="#ff3750"/><stop offset=".71" stop-color="#f5156c"/><stop offset=".78" stop-color="#eb0878"/><stop offset=".86" stop-color="#e50080"/></radialGradient><radialGradient id="g3" cx="0" cy="0" r="1" href="#P" gradientTransform="matrix(88.776,0,0,88.776,56.606,58.218)"><stop offset=".3" stop-color="#960e18" stop-opacity="1"/><stop offset=".35" stop-color="#b11927" stop-opacity=".74"/><stop offset=".43" stop-color="#db293d" stop-opacity=".34"/><stop offset=".5" stop-color="#f5334b" stop-opacity=".09"/><stop offset=".53" stop-color="#ff3750" stop-opacity="0"/></radialGradient><radialGradient id="g4" cx="0" cy="0" r="1" href="#P" gradientTransform="matrix(64.315,0,0,64.315,67.31,1.778)"><stop offset=".13" stop-color="#fff44f"/><stop offset=".25" stop-color="#ffdc3e"/><stop offset=".51" stop-color="#ff9d12"/><stop offset=".53" stop-color="#ff980e"/></radialGradient><radialGradient id="g5" cx="0" cy="0" r="1" href="#P" gradientTransform="matrix(42.27,0,0,42.27,46.787,81.408)"><stop offset=".35" stop-color="#3a8ee6"/><stop offset=".47" stop-color="#5c79f0"/><stop offset=".67" stop-color="#9059ff"/><stop offset="1" stop-color="#c139e6"/></radialGradient><radialGradient id="g6" cx="0" cy="0" r="1" href="#P" gradientTransform="matrix(21.739,-5.379,5.379,21.739,57.881,47.668)"><stop offset=".21" stop-color="#9059ff" stop-opacity="0"/><stop offset=".28" stop-color="#8c4ff3" stop-opacity=".06"/><stop offset=".75" stop-color="#7716a8" stop-opacity=".45"/><stop offset=".97" stop-color="#6e008b" stop-opacity=".6"/></radialGradient><radialGradient id="g7" cx="0" cy="0" r="1" href="#P" gradientTransform="matrix(30.41,0,0,30.41,55.484,18.293)"><stop stop-color="#ffe226"/><stop offset=".12" stop-color="#ffdb27"/><stop offset=".3" stop-color="#ffc82a"/><stop offset=".5" stop-color="#ffa930"/><stop offset=".73" stop-color="#ff7e37"/><stop offset=".79" stop-color="#ff7139"/></radialGradient><radialGradient id="g8" cx="0" cy="0" r="1" href="#P" gradientTransform="matrix(129.744,0,0,129.744,79.388,-0.995)"><stop offset=".11" stop-color="#fff44f"/><stop offset=".46" stop-color="#ff980e"/><stop offset=".62" stop-color="#ff5634"/><stop offset=".72" stop-color="#ff3647"/><stop offset=".9" stop-color="#e31587"/></radialGradient><radialGradient id="g9" cx="0" cy="0" r="1" href="#P" gradientTransform="matrix(9.504,94.091,-94.091,9.504,66.846,13.181)"><stop stop-color="#fff44f"/><stop offset=".06" stop-color="#ffe847"/><stop offset=".17" stop-color="#ffc830"/><stop offset=".3" stop-color="#ff980e"/><stop offset=".36" stop-color="#ff8b16"/><stop offset=".45" stop-color="#ff672a"/><stop offset=".57" stop-color="#ff3647"/><stop offset=".74" stop-color="#e31587"/></radialGradient><radialGradient id="g10" cx="0" cy="0" r="1" href="#P" gradientTransform="matrix(80.999,0,0,80.999,54.768,29.555)"><stop offset=".14" stop-color="#fff44f"/><stop offset=".48" stop-color="#ff980e"/><stop offset=".59" stop-color="#ff5634"/><stop offset=".66" stop-color="#ff3647"/><stop offset=".9" stop-color="#e31587"/></radialGradient><radialGradient id="g11" cx="0" cy="0" r="1" href="#P" gradientTransform="matrix(88.654,0,0,88.654,76.15,34.297)"><stop offset=".09" stop-color="#fff44f"/><stop offset=".23" stop-color="#ffe141"/><stop offset=".51" stop-color="#ffaf1e"/><stop offset=".63" stop-color="#ff980e"/></radialGradient><linearGradient id="g12" x2="1" href="#P" gradientTransform="matrix(-60.15,60.152,-60.073,-60.071,91.462,25.421)"><stop offset=".17" stop-color="#fff44f" stop-opacity=".8"/><stop offset=".27" stop-color="#fff44f" stop-opacity=".63"/><stop offset=".49" stop-color="#fff44f" stop-opacity=".22"/><stop offset=".6" stop-color="#fff44f" stop-opacity="0"/></linearGradient></defs><style>.a{fill:url(#g1)}.b{fill:url(#g2)}.c{fill:url(#g3)}.d{fill:url(#g4)}.e{fill:url(#g5)}.f{fill:url(#g6)}.g{fill:url(#g7)}.h{fill:url(#g8)}.i{fill:url(#g9)}.j{fill:url(#g10)}.k{fill:url(#g11)}.l{fill:url(#g12)}</style><path fill-rule="evenodd" class="a" d="m100.7 63q-0.1 0.9-0.2 1.7c-3.4 20.1-20.9 35.4-42 35.4-23.5 0-42.5-19.1-42.5-42.6v-0.2q0-0.8 0.1-1.5 0-0.7 0.1-1.5 0.1-0.7 0.2-1.4 0.1-0.8 0.3-1.5v-0.1c0-0.4 0.3-2.3 0.4-2.7q0-0.1 0-0.2 0.4-1.8 1-3.5 0.5-1.7 1.3-3.3 0.7-1.6 1.6-3.1 0.8-1.6 1.9-3 0.4-0.7 0.9-1.3 0.4-0.6 0.9-1.2 0.5-0.6 1.1-1.2 0.5-0.6 1-1.1 0.5-0.5 1-1 0.5-0.4 1-0.9 0.6-0.4 1.1-0.9 0.5-0.4 1.1-0.8c0.1-0.1 1.4-0.8 1.4-0.7-0.1 1.4-0.2 8.5 1.5 10.6 2.5-2.8 5.9-5.9 10.3-7.9q-0.4 1.3-0.5 2.6-0.2 1.3-0.2 2.6 0 1.3 0.2 2.6 0.2 1.4 0.6 2.6 0.1 0.1 0.3 0.2 0.1 0.1 0.2 0.2 0.2 0.1 0.3 0.2 0.1 0.1 0.3 0.3 1.2-1 2.6-1.8 1.4-0.8 2.9-1.4 1.5-0.6 3-0.9 1.6-0.4 3.2-0.5c0.3-5.8 4-17.4 14.7-23.6h-0.1q0.1 0 0.1 0 0 0 0 0 0 0 0 0 0 0 0 0 0 0 0 0 0 0 0 0 0 0 0 0 0 0 0.1 0 0 0 0 0 0 0 0 0 0 0 0 0 0.1 0 0.1 0 0 0.1 0 0.1 0 0.2 0.1 0.4 0.1 0.2 0.1 0.4 0.1 0.3 0.2 0.5 0.1 0.2 0.2 0.4 0.2 0.4 0.5 0.9 0.5 0.8 1 1.6c6.6 10.5 14.8 15.4 19.6 27.4q0-0.1 0-0.1c-0.5-3.5-1.9-8.2-4.3-12.9 2.9 1.5 6.7 6.3 8.5 10.8 2.7 6.4 3.7 14 2.8 21.3zm-51.8 12q0 0 0 0 0 0 0 0zm0 0q0.3 0.1 0.6 0.3-0.3-0.2-0.6-0.3zm44.8-31.1v-0.1 0.1z"/><path class="b" d="m97.9 41.7c-1.8-4.5-5.6-9.3-8.5-10.8 2.4 4.7 3.8 9.4 4.3 12.9v0.1c4 10.9 1.8 22-1.3 28.7-4.9 10.5-16.7 21.2-35.2 20.7-20-0.6-37.6-15.4-40.8-34.8-0.6-3.1 0-4.6 0.3-7.1-0.4 1.9-0.6 2.5-0.7 5.9v0.2c0 23.5 19 42.6 42.5 42.6 21.1 0 38.6-15.3 42-35.4q0.1-0.8 0.2-1.7c0.9-7.3-0.1-14.9-2.8-21.3z"/><path class="c" d="m97.9 41.7c-1.8-4.5-5.6-9.3-8.5-10.8 2.4 4.7 3.8 9.4 4.3 12.9v0.1c4 10.9 1.8 22-1.3 28.7-4.9 10.5-16.7 21.2-35.2 20.7-20-0.6-37.6-15.4-40.8-34.8-0.6-3.1 0-4.6 0.3-7.1-0.4 1.9-0.6 2.5-0.7 5.9v0.2c0 23.5 19 42.6 42.5 42.6 21.1 0 38.6-15.3 42-35.4q0.1-0.8 0.2-1.7c0.9-7.3-0.1-14.9-2.8-21.3z"/><path class="d" d="m77.3 46.7q0.1 0.1 0.2 0.2-0.4-0.8-0.8-1.4-0.5-0.7-1-1.4-0.5-0.6-1-1.2-0.6-0.6-1.1-1.2c-13.3-13.2-3.5-28.7-1.9-29.5h0.1c-10.7 6.2-14.4 17.8-14.7 23.6q0.7 0 1.5 0c8 0 14.9 4.3 18.7 10.9z"/><path class="e" d="m58.6 49.3c0 1.1-3.8 4.7-5.1 4.7-12.1 0-14.1 7.3-14.1 7.3 0.6 6.2 4.9 11.3 10.1 14q0.3 0.2 0.7 0.3 0.6 0.3 1.2 0.5 0.7 0.3 1.4 0.4 0.7 0.2 1.3 0.4 0.7 0.1 1.4 0.2 0.8 0.1 1.5 0.1c21.2 1 25.3-25.4 10-33 3.9-0.7 8 0.9 10.2 2.4-3.7-6.5-10.6-10.8-18.6-10.8q-0.8 0-1.5 0-1.6 0.1-3.2 0.5-1.5 0.3-3 0.9-1.5 0.6-2.9 1.4-1.4 0.8-2.6 1.8c0.6 0.5 1.4 1.2 2.9 2.8 2.9 2.8 10.3 5.8 10.3 6.1z"/><path class="f" d="m58.6 49.3c0 1.1-3.8 4.7-5.1 4.7-12.1 0-14.1 7.3-14.1 7.3 0.6 6.2 4.9 11.3 10.1 14q0.3 0.2 0.7 0.3 0.6 0.3 1.2 0.5 0.7 0.3 1.4 0.4 0.7 0.2 1.3 0.4 0.7 0.1 1.4 0.2 0.8 0.1 1.5 0.1c21.2 1 25.3-25.4 10-33 3.9-0.7 8 0.9 10.2 2.4-3.7-6.5-10.6-10.8-18.6-10.8q-0.8 0-1.5 0-1.6 0.1-3.2 0.5-1.5 0.3-3 0.9-1.5 0.6-2.9 1.4-1.4 0.8-2.6 1.8c0.6 0.5 1.4 1.2 2.9 2.8 2.9 2.8 10.3 5.8 10.3 6.1z"/><path class="g" d="m43.4 38.9q0.5 0.4 0.9 0.6-0.4-1.2-0.6-2.6-0.2-1.3-0.2-2.6 0-1.3 0.2-2.6 0.1-1.3 0.5-2.6c-4.4 2-7.8 5.1-10.3 7.9 0.2 0 6.4-0.1 9.5 1.9z"/><path class="h" d="m16.4 58.5c3.2 19.4 20.8 34.2 40.8 34.8 18.5 0.5 30.3-10.2 35.2-20.7 3.2-6.7 5.4-17.8 1.3-28.7v-0.1q0 0 0 0.1c1.6 9.8-3.5 19.4-11.3 25.9q0 0 0 0 0 0 0 0 0 0 0 0 0 0 0 0c-15.3 12.5-29.9 7.5-32.9 5.5q-0.3-0.1-0.6-0.3c-8.9-4.3-12.6-12.4-11.8-19.3-7.5 0-10.1-6.4-10.1-6.4 0 0 6.7-4.8 15.6-0.6 8.3 3.9 16 0.6 16 0.6 0-0.3-7.4-3.3-10.3-6.1-1.5-1.6-2.3-2.3-2.9-2.8q-0.1-0.1-0.3-0.3-0.1-0.1-0.2-0.2-0.2-0.1-0.3-0.2-0.2-0.1-0.3-0.2c-0.3-0.1-0.5-0.3-0.9-0.6-3.1-2-9.3-1.9-9.5-1.9-1.7-2.1-1.6-9.1-1.5-10.6 0-0.1-1.2 0.6-1.4 0.7q-0.6 0.4-1.1 0.9-0.5 0.4-1.1 0.8-0.5 0.5-1 0.9-0.5 0.5-1 1-0.5 0.6-1 1.1-0.5 0.6-1 1.2-0.5 0.6-1 1.2-0.5 0.6-0.9 1.3-1.1 1.4-1.9 3-0.9 1.5-1.6 3.1-0.7 1.7-1.3 3.3-0.6 1.7-0.9 3.5c-0.1 0.1-1.6 6.7-0.8 10.1z"/><path class="i" d="m73.6 41.7q0.5 0.6 1.1 1.2 0.5 0.6 1 1.2 0.5 0.7 1 1.4 0.4 0.6 0.8 1.4 0.1 0 0.2 0.1 0.1 0 0.1 0.1 0.1 0.1 0.2 0.1 0.1 0.1 0.2 0.2c9.6 8.9 4.6 21.5 4.2 22.4 7.8-6.5 12.8-16.1 11.3-25.9-4.8-12-13-16.9-19.6-27.4q-0.5-0.8-1-1.6-0.3-0.5-0.5-0.9-0.1-0.2-0.2-0.4-0.1-0.2-0.2-0.5 0-0.2-0.1-0.4-0.1-0.2-0.1-0.4 0 0 0-0.1 0 0-0.1 0 0 0 0 0 0 0 0 0 0 0 0 0-0.1 0-0.1 0 0 0 0 0 0 0 0 0 0 0 0 0 0 0 0 0 0 0 0 0 0 0 0 0 0 0-0.1 0c-1.6 0.8-11.4 16.3 1.9 29.5z"/><path class="j" d="m78.2 47.4q-0.1-0.1-0.2-0.2-0.1 0-0.2-0.1 0-0.1-0.1-0.1-0.1-0.1-0.2-0.2-0.1-0.1-0.2-0.2c-2.3-1.5-6.4-3.1-10.3-2.4 15.3 7.6 11.2 34-10 33q-0.7 0-1.4-0.1-0.8-0.1-1.4-0.2-0.7-0.2-1.4-0.4-0.7-0.1-1.4-0.4-0.6-0.2-1.2-0.5-0.4-0.1-0.7-0.3c3 2 17.6 6.9 32.9-5.5q0 0 0-0.1c0.4-0.8 5.4-13.4-4.2-22.3z"/><path class="k" d="m39.4 61.3c0 0 2-7.3 14.1-7.3 1.3 0 5.1-3.6 5.1-4.7 0.1-1.1-7.7 3.3-16-0.6-8.9-4.2-15.6 0.6-15.6 0.6 0 0 2.5 6.3 10.1 6.3-0.8 7 2.9 15.1 11.8 19.4q0.3 0.1 0.6 0.3c-5.2-2.7-9.5-7.8-10.1-14z"/><path fill-rule="evenodd" class="l" d="m97.9 41.7c-1.8-4.5-5.6-9.3-8.5-10.8 2.4 4.7 3.8 9.4 4.3 12.9q0 0 0 0.1c-4.8-12-13-16.9-19.6-27.4q-0.5-0.8-1-1.6-0.3-0.5-0.5-0.9-0.1-0.2-0.2-0.4-0.1-0.2-0.2-0.5 0-0.2-0.1-0.4-0.1-0.2-0.1-0.4 0 0 0-0.1 0 0-0.1 0 0 0 0 0 0 0 0 0 0 0 0 0-0.1 0-0.1 0 0 0 0 0 0 0 0 0 0 0 0 0 0 0 0 0 0 0 0 0 0 0 0 0 0 0-0.1 0h0.1c-10.7 6.2-14.4 17.8-14.7 23.6q0.7 0 1.5 0c8 0 14.9 4.3 18.7 10.9-2.3-1.6-6.4-3.2-10.3-2.5 15.3 7.6 11.2 34-10 33q-0.7 0-1.4-0.1-0.7-0.1-1.4-0.2-0.7-0.2-1.4-0.3-0.7-0.2-1.4-0.5-0.6-0.2-1.2-0.5-0.4-0.1-0.7-0.3-0.3-0.2-0.6-0.3 0.3 0.1 0.6 0.3c-5.2-2.7-9.5-7.8-10.1-14 0 0 2-7.3 14.1-7.3 1.3 0 5.1-3.6 5.1-4.7 0-0.3-7.4-3.3-10.3-6.1-1.5-1.6-2.3-2.3-2.9-2.8q-0.2-0.2-0.3-0.3-0.1-0.1-0.3-0.2-0.1-0.1-0.2-0.2-0.2-0.1-0.3-0.2-0.4-1.2-0.6-2.6-0.2-1.3-0.2-2.6 0-1.3 0.2-2.6 0.1-1.3 0.5-2.6c-4.4 2-7.8 5.1-10.3 7.9-1.7-2.1-1.6-9.2-1.5-10.6 0-0.1-1.2 0.6-1.4 0.7q-0.6 0.4-1.1 0.8-0.5 0.5-1.1 0.9-0.5 0.5-1 0.9-0.5 0.5-1 1-0.5 0.5-1 1.1-0.6 0.6-1.1 1.2-0.5 0.6-0.9 1.2-0.5 0.6-0.9 1.3-1.1 1.4-1.9 3-0.9 1.5-1.6 3.1-0.8 1.6-1.3 3.3-0.6 1.7-1 3.5 0 0.1 0 0.2c-0.1 0.4-0.5 2.3-0.5 2.7 0 0.1 0 0 0 0q-0.1 0.8-0.2 1.5-0.1 0.7-0.2 1.5-0.1 0.7-0.1 1.5-0.1 0.7-0.1 1.5v0.2c0 23.5 19 42.6 42.5 42.6 21.1 0 38.6-15.3 42-35.4q0.1-0.8 0.2-1.7c0.9-7.3-0.1-14.9-2.8-21.3zm-4.2 2.1v0.1z"/></svg>